<svg xmlns="http://www.w3.org/2000/svg" viewBox="0 0 120 200" fill="none">
  <path d="M25 10 C40 30, 50 60, 45 90 C42 110, 30 130, 35 150 C38 165, 50 180, 60 195" stroke="#8BA88B" stroke-width="1.5" fill="none" opacity="0.7"/>
  <ellipse cx="42" cy="45" rx="18" ry="8" fill="#A8C4A0" opacity="0.6" transform="rotate(30 42 45)"/>
  <ellipse cx="48" cy="70" rx="16" ry="7" fill="#B5D4AD" opacity="0.5" transform="rotate(20 48 70)"/>
  <ellipse cx="40" cy="95" rx="17" ry="8" fill="#9BB896" opacity="0.55" transform="rotate(35 40 95)"/>
  <ellipse cx="52" cy="120" rx="15" ry="7" fill="#A8C4A0" opacity="0.5" transform="rotate(15 52 120)"/>
  <ellipse cx="45" cy="145" rx="16" ry="7" fill="#B5D4AD" opacity="0.45" transform="rotate(25 45 145)"/>
  <ellipse cx="55" cy="170" rx="14" ry="6" fill="#9BB896" opacity="0.4" transform="rotate(10 55 170)"/>
</svg>
